<svg width="180" height="180" viewBox="0 0 180 180" xmlns="http://www.w3.org/2000/svg">
  <defs></defs>
  <linearGradient id="a" x1="90.15" x2="90.15" y1="180.15" y2=".15" gradientUnits="userSpaceOnUse">
    <stop offset="0" stop-color="#9e0000"></stop>
    <stop offset="0.5" stop-color="#e70000"></stop>
    <stop offset="1" stop-color="red"></stop>
  </linearGradient>
  <path fill="url(#a)" fill-rule="evenodd" d="M39.479.149C17.772.149.149 17.772.149 39.479V140.82c0 21.706 17.623 39.329 39.33 39.329H140.82c21.706 0 39.329-17.623 39.329-39.329V39.479c0-21.707-17.623-39.33-39.329-39.33H39.479Z"></path>
  <path fill-rule="evenodd" d="M142.675 96.483c0 28.114-23.68 50.905-52.891 50.905-29.21 0-52.891-22.79-52.891-50.905 0-28.114 23.68-50.905 52.891-50.905 29.21 0 52.891 22.79 52.891 50.905Z"></path>
  <path fill="#f9f7f7" fill-rule="evenodd" d="M142.675 90.042c0 29.216-23.68 52.9-52.891 52.9-29.21 0-52.891-23.684-52.891-52.9 0-29.216 23.68-52.9 52.891-52.9 29.21 0 52.891 23.684 52.891 52.9Z"></path>
  <path fill="#2a1616" fill-rule="evenodd" d="M46.999 61.11 24.875 39.656l.675-.703 11.826-.228-.228-11.842.779-.811 22.122 21.453.02-.021.306 7.597.003-.004 23.151 22.692a13.8 13.8 0 0 1 6.558-1.792c7.655-.148 13.991 5.948 14.139 13.603.147 7.656-5.948 13.991-13.604 14.139-7.656.148-13.991-5.948-14.139-13.603a13.807 13.807 0 0 1 1.433-6.415L54.8 61.064l-.098.103-7.721-.038.018-.019Z"></path>
  <path fill-rule="evenodd" d="M104 90.02c0 7.732-6.268 14-14 14s-14-6.268-14-14 6.268-14 14-14 14 6.268 14 14Z"></path>
</svg>
